<?xml version="1.0" standalone="no"?>
<!DOCTYPE svg PUBLIC "-//W3C//DTD SVG 20010904//EN"
        "http://www.w3.org/TR/2001/REC-SVG-20010904/DTD/svg10.dtd">
<svg version="1.0" xmlns="http://www.w3.org/2000/svg"
     width="512.000000pt" height="512.000000pt" viewBox="0 0 512.000000 512.000000"
     preserveAspectRatio="xMidYMid meet">

    <g transform="translate(0.000000,512.000000) scale(0.100000,-0.100000)"
       fill="#000000" stroke="none">
        <path d="M4750 5114 c-183 -34 -367 -95 -585 -194 -88 -40 -335 -172 -335
-180 0 -3 32 -24 70 -48 298 -184 591 -476 785 -781 l58 -92 35 63 c19 35 70
135 113 223 257 533 299 904 111 987 -46 21 -191 33 -252 22z"/>
        <path d="M2350 4640 c-712 -78 -1339 -510 -1655 -1140 -162 -324 -237 -664
-221 -1015 3 -82 10 -165 14 -184 l8 -35 84 110 c599 780 1341 1525 2120 2129
l154 120 -39 7 c-67 12 -375 17 -465 8z"/>
        <path d="M3270 4388 c-469 -330 -898 -696 -1371 -1168 -360 -360 -653 -690
-938 -1057 -139 -179 -311 -423 -311 -440 0 -25 97 -207 167 -313 323 -489
826 -814 1418 -917 143 -25 499 -24 649 1 1295 215 2078 1530 1645 2762 -176
502 -554 928 -1041 1175 -43 21 -83 39 -90 39 -7 -1 -65 -37 -128 -82z"/>
        <path d="M337 1228 c-309 -556 -419 -1044 -265 -1173 102 -86 342 -67 663 51
113 42 413 183 523 246 l42 25 -77 48 c-185 114 -389 285 -535 449 -96 107
-231 288 -276 368 -15 26 -30 48 -34 48 -3 0 -22 -28 -41 -62z"/>
    </g>
</svg>
